<?xml version="1.0" encoding="UTF-8"?>
<svg id="Layer_2" data-name="Layer 2" xmlns="http://www.w3.org/2000/svg" viewBox="0 0 468 468">
  <defs>
    <style>
      .cls-1 {
        stroke-width: 3px;
      }

      .cls-1, .cls-2, .cls-3, .cls-4, .cls-5, .cls-6 {
        stroke: #00ff73;
        stroke-miterlimit: 10;
      }

      .cls-1, .cls-2, .cls-5, .cls-6 {
        fill: none;
      }

      .cls-7 {
        fill: #ff3e3e;
      }

      .cls-2 {
        stroke-width: 5px;
      }

      .cls-3 {
        fill: #365b40;
      }

      .cls-4 {
        fill: rgba(54, 91, 64, .6);
        stroke-width: 10px;
      }

      .cls-5 {
        stroke-width: 2px;
      }
    </style>
  </defs>
  <g id="Layer_1-2" data-name="Layer 1">
    <g>
      <rect class="cls-3" x="123.93" y="74.55" width="93.34" height="265.47" transform="translate(-80.78 113.07) rotate(-30)"/>
      <rect class="cls-3" x="249.96" y="174.82" width="147.48" height="113.29" transform="translate(-72.37 192.86) rotate(-30)"/>
      <line class="cls-6" x1="75.59" y1="108.41" x2="209.23" y2="337.76"/>
      <line class="cls-6" x1="68.26" y1="113.17" x2="201.9" y2="342.52"/>
      <line class="cls-6" x1="77.89" y1="107.15" x2="211.53" y2="336.5"/>
      <line class="cls-6" x1="82.71" y1="104.74" x2="216.35" y2="334.09"/>
      <line class="cls-6" x1="87.53" y1="102.34" x2="221.16" y2="331.68"/>
      <line class="cls-6" x1="92.34" y1="99.33" x2="225.98" y2="328.67"/>
      <line class="cls-6" x1="100.17" y1="94.51" x2="233.8" y2="323.86"/>
      <line class="cls-6" x1="109.2" y1="89.09" x2="242.83" y2="318.44"/>
      <line class="cls-6" x1="111.6" y1="87.89" x2="245.24" y2="317.24"/>
      <line class="cls-6" x1="116.42" y1="85.48" x2="250.06" y2="314.83"/>
      <line class="cls-6" x1="121.15" y1="82.72" x2="254.78" y2="312.06"/>
      <line class="cls-6" x1="125.36" y1="80.31" x2="259" y2="309.66"/>
      <line class="cls-6" x1="129.96" y1="77.64" x2="263.6" y2="306.99"/>
      <line class="cls-6" x1="134.78" y1="74.63" x2="268.41" y2="303.98"/>
      <line class="cls-6" x1="139.59" y1="71.62" x2="273.23" y2="300.97"/>
      <line class="cls-6" x1="67.17" y1="121.66" x2="147.83" y2="74.1"/>
      <line class="cls-6" x1="68.06" y1="123.74" x2="148.73" y2="76.18"/>
      <line class="cls-6" x1="69.27" y1="125.54" x2="149.93" y2="77.99"/>
      <line class="cls-6" x1="71.07" y1="128.55" x2="151.74" y2="81"/>
      <line class="cls-6" x1="74.69" y1="134.57" x2="155.35" y2="87.02"/>
      <polyline class="cls-6" points="160.17 96.05 79.5 143.6 63.38 153.48"/>
      <line class="cls-6" x1="94.26" y1="98.53" x2="227.9" y2="327.88"/>
      <line class="cls-6" x1="79.82" y1="106.35" x2="213.45" y2="335.7"/>
      <line class="cls-6" x1="65.97" y1="114.18" x2="199.61" y2="343.53"/>
      <polygon class="cls-3" points="160.47 96.37 224.88 107.21 224.88 143.33 265.21 146.34 292.9 139.72 326.61 143.93 326.61 164.98 231.5 219.18 160.47 96.37"/>
      <polygon class="cls-3" points="196.59 345.59 243.54 403.98 283.87 389.53 336.85 403.98 377.18 379.9 317.67 300.36 277.38 298.9 196.59 345.59"/>
      <line class="cls-6" x1="88.8" y1="158.77" x2="169.47" y2="111.21"/>
      <line class="cls-6" x1="90.61" y1="162.38" x2="171.27" y2="114.83"/>
      <line class="cls-6" x1="94.82" y1="169.6" x2="175.49" y2="122.05"/>
      <polyline class="cls-6" points="176.69 123.86 96.03 171.41 75.38 185.48"/>
      <polyline class="cls-6" points="186.32 140.71 105.66 188.27 100.38 192.48"/>
      <line class="cls-6" x1="108.67" y1="193.08" x2="189.33" y2="145.53"/>
      <polyline class="cls-6" points="192.94 152.75 112.28 200.3 96.38 209.48"/>
      <line class="cls-6" x1="137.43" y1="73.17" x2="271.07" y2="302.52"/>
      <line class="cls-6" x1="142.44" y1="70.34" x2="276.08" y2="299.69"/>
      <line class="cls-6" x1="115.33" y1="205.56" x2="196" y2="158.01"/>
      <line class="cls-6" x1="118.34" y1="209.78" x2="198.4" y2="162.59"/>
      <line class="cls-6" x1="123.16" y1="218.81" x2="203.82" y2="171.25"/>
      <line class="cls-6" x1="125.57" y1="223.02" x2="206.23" y2="175.47"/>
      <line class="cls-6" x1="127.37" y1="226.63" x2="208.04" y2="179.08"/>
      <line class="cls-6" x1="131.59" y1="233.26" x2="212.25" y2="185.7"/>
      <line class="cls-6" x1="134.6" y1="238.07" x2="215.26" y2="190.52"/>
      <polyline class="cls-6" points="215.86 192.32 135.2 239.88 126.38 244.48 109.38 220.48 120.75 214.59 201.41 167.04"/>
      <line class="cls-6" x1="137" y1="242.28" x2="217.67" y2="194.73"/>
      <line class="cls-6" x1="137.61" y1="243.49" x2="218.27" y2="195.93"/>
      <polyline class="cls-6" points="221.27 201.14 140.61 248.7 121.38 260.48 139.99 266.3"/>
      <line class="cls-6" x1="143.62" y1="253.51" x2="223.68" y2="206.53"/>
      <line class="cls-6" x1="146.63" y1="258.93" x2="227.29" y2="211.38"/>
      <polyline class="cls-6" points="230.3 216.79 149.64 264.35 139.99 266.3"/>
      <polyline class="cls-6" points="233.31 222.21 152.65 269.77 146.63 272.77"/>
      <line class="cls-6" x1="155.06" y1="273.38" x2="235.72" y2="225.82"/>
      <line class="cls-6" x1="157.27" y1="278.04" x2="237.93" y2="230.49"/>
      <line class="cls-6" x1="161.48" y1="284.66" x2="242.14" y2="237.11"/>
      <line class="cls-6" x1="164.49" y1="290.08" x2="245.15" y2="242.53"/>
      <line class="cls-6" x1="166.9" y1="294.9" x2="247.56" y2="247.34"/>
      <polyline class="cls-6" points="249.97 250.95 169.3 298.51 159.38 303.48 166.38 313.48 163.38 326.48 181.03 318.46 261.69 270.91"/>
      <line class="cls-6" x1="172.6" y1="304.02" x2="253.26" y2="256.46"/>
      <line class="cls-6" x1="175.61" y1="310.04" x2="256.27" y2="262.48"/>
      <line class="cls-6" x1="177.41" y1="312.45" x2="258.08" y2="264.89"/>
      <line class="cls-6" x1="180.42" y1="317.26" x2="261.09" y2="269.71"/>
      <line class="cls-6" x1="183.43" y1="322.68" x2="264.1" y2="275.12"/>
      <line class="cls-6" x1="185.84" y1="327.49" x2="266.5" y2="279.94"/>
      <line class="cls-6" x1="188.25" y1="331.11" x2="268.91" y2="283.55"/>
      <line class="cls-6" x1="191.86" y1="337.73" x2="272.52" y2="290.17"/>
      <line class="cls-6" x1="230.3" y1="216.77" x2="326.61" y2="161.39"/>
      <line class="cls-6" x1="228.47" y1="213.48" x2="326.61" y2="157.78"/>
      <line class="cls-6" x1="225.79" y1="209.11" x2="326.61" y2="151.76"/>
      <line class="cls-6" x1="219.46" y1="198.11" x2="316.82" y2="142.66"/>
      <line class="cls-6" x1="212.24" y1="185.47" x2="293.74" y2="139.97"/>
      <line class="cls-6" x1="211.04" y1="183.66" x2="283.46" y2="141.98"/>
      <line class="cls-6" x1="208.03" y1="178.84" x2="266.38" y2="146.06"/>
      <line class="cls-6" x1="206.22" y1="175.23" x2="259.76" y2="146.06"/>
      <line class="cls-6" x1="203.81" y1="171.02" x2="251.94" y2="145.46"/>
      <line class="cls-6" x1="202.01" y1="168.61" x2="244.85" y2="144.94"/>
      <line class="cls-6" x1="197.19" y1="159.58" x2="224.84" y2="143.1"/>
      <line class="cls-6" x1="200.2" y1="164.72" x2="232.71" y2="143.93"/>
      <line class="cls-6" x1="193.52" y1="153.93" x2="224.88" y2="135.5"/>
      <line class="cls-6" x1="190.58" y1="148.96" x2="224.88" y2="128.88"/>
      <line class="cls-6" x1="189.11" y1="145.57" x2="224.88" y2="124.67"/>
      <line class="cls-6" x1="187.77" y1="143.58" x2="224.88" y2="121.66"/>
      <line class="cls-6" x1="187.1" y1="142.28" x2="224.88" y2="119.85"/>
      <line class="cls-6" x1="186.11" y1="140.57" x2="224.88" y2="118.05"/>
      <line class="cls-6" x1="182.87" y1="135.45" x2="224.88" y2="111.42"/>
      <line class="cls-6" x1="180.04" y1="130.78" x2="222.06" y2="106.76"/>
      <line class="cls-6" x1="178.84" y1="128.38" x2="217.66" y2="106.01"/>
      <line class="cls-6" x1="177.43" y1="125.74" x2="214.05" y2="105.4"/>
      <line class="cls-6" x1="174.44" y1="121.1" x2="206.82" y2="104.2"/>
      <line class="cls-6" x1="172.84" y1="117.16" x2="200.2" y2="103"/>
      <line class="cls-6" x1="169.04" y1="111.58" x2="189.37" y2="101.19"/>
      <line class="cls-6" x1="166.1" y1="106.63" x2="181.54" y2="99.99"/>
      <line class="cls-6" x1="164.13" y1="102.96" x2="174.92" y2="98.78"/>
      <line class="cls-6" x1="163.48" y1="96.98" x2="233.91" y2="217.97"/>
      <line class="cls-6" x1="167.09" y1="97.58" x2="236.92" y2="216.77"/>
      <line class="cls-6" x1="171.91" y1="98.18" x2="239.93" y2="214.36"/>
      <line class="cls-6" x1="181.54" y1="99.99" x2="246.55" y2="210.75"/>
      <line class="cls-6" x1="189.37" y1="101.19" x2="252.57" y2="207.14"/>
      <line class="cls-6" x1="200.2" y1="103" x2="258.59" y2="203.52"/>
      <line class="cls-6" x1="204.42" y1="103.6" x2="224.88" y2="138.51"/>
      <line class="cls-6" x1="209.23" y1="104.8" x2="224.88" y2="131.89"/>
      <line class="cls-6" x1="217.66" y1="106.01" x2="224.88" y2="118.05"/>
      <line class="cls-6" x1="221.87" y1="106.61" x2="224.88" y2="111.42"/>
      <line class="cls-6" x1="232.71" y1="143.93" x2="265.82" y2="199.91"/>
      <line class="cls-6" x1="236.32" y1="144.53" x2="268.22" y2="198.11"/>
      <line class="cls-6" x1="244.75" y1="145.13" x2="273.64" y2="195.1"/>
      <line class="cls-6" x1="251.97" y1="145.74" x2="279.66" y2="192.09"/>
      <line class="cls-6" x1="253.78" y1="145.74" x2="281.47" y2="190.88"/>
      <line class="cls-6" x1="257.39" y1="145.74" x2="283.27" y2="189.08"/>
      <line class="cls-6" x1="261.6" y1="146.34" x2="286.28" y2="187.87"/>
      <line class="cls-6" x1="266.42" y1="146.34" x2="289.89" y2="185.47"/>
      <line class="cls-6" x1="271.23" y1="145.13" x2="294.11" y2="183.66"/>
      <line class="cls-6" x1="276.05" y1="143.93" x2="298.32" y2="181.25"/>
      <line class="cls-6" x1="278.46" y1="143.33" x2="300.13" y2="180.05"/>
      <line class="cls-6" x1="280.86" y1="142.73" x2="302.54" y2="178.84"/>
      <line class="cls-6" x1="283.27" y1="142.12" x2="304.94" y2="177.04"/>
      <line class="cls-6" x1="286.88" y1="140.92" x2="307.95" y2="175.23"/>
      <line class="cls-6" x1="291.1" y1="140.32" x2="310.96" y2="174.03"/>
      <line class="cls-6" x1="293.51" y1="139.72" x2="313.37" y2="172.82"/>
      <line class="cls-6" x1="298.92" y1="140.32" x2="316.38" y2="170.42"/>
      <line class="cls-6" x1="304.34" y1="140.92" x2="320.59" y2="168.61"/>
      <line class="cls-6" x1="307.35" y1="141.52" x2="322.4" y2="167.41"/>
      <line class="cls-6" x1="312.17" y1="142.12" x2="324.81" y2="165.6"/>
      <line class="cls-6" x1="316.98" y1="142.73" x2="326.61" y2="161.39"/>
      <line class="cls-6" x1="318.19" y1="142.73" x2="326.61" y2="159.58"/>
      <line class="cls-6" x1="321.2" y1="143.33" x2="326.61" y2="155.37"/>
      <line class="cls-6" x1="324.81" y1="143.93" x2="326.61" y2="149.35"/>
      <line class="cls-6" x1="221.27" y1="201.12" x2="324.81" y2="143.93"/>
      <line class="cls-6" x1="321.2" y1="143.33" x2="220.07" y2="199.91"/>
      <line class="cls-6" x1="233.31" y1="222.19" x2="361.53" y2="149.35"/>
      <line class="cls-6" x1="235.72" y1="225.8" x2="363.94" y2="153.56"/>
      <line class="cls-6" x1="238.13" y1="230.61" x2="366.34" y2="158.38"/>
      <line class="cls-6" x1="242.34" y1="237.23" x2="369.35" y2="162.59"/>
      <line class="cls-6" x1="245.35" y1="242.65" x2="372.36" y2="168.01"/>
      <line class="cls-6" x1="247.76" y1="247.47" x2="374.77" y2="172.22"/>
      <line class="cls-6" x1="377.18" y1="176.44" x2="250.16" y2="251.08"/>
      <line class="cls-6" x1="379.59" y1="180.65" x2="253.17" y2="256.5"/>
      <line class="cls-6" x1="382.6" y1="186.07" x2="256.18" y2="262.52"/>
      <line class="cls-6" x1="386.21" y1="192.09" x2="257.99" y2="264.93"/>
      <line class="cls-6" x1="389.22" y1="197.51" x2="261.6" y2="270.95"/>
      <line class="cls-6" x1="392.23" y1="202.32" x2="264.01" y2="275.16"/>
      <line class="cls-6" x1="394.64" y1="207.14" x2="266.42" y2="279.97"/>
      <line class="cls-6" x1="397.04" y1="211.35" x2="268.83" y2="283.59"/>
      <line class="cls-6" x1="400.05" y1="216.17" x2="272.44" y2="290.21"/>
      <line class="cls-6" x1="403.06" y1="221.58" x2="274.85" y2="294.42"/>
      <line class="cls-6" x1="406.07" y1="226.4" x2="277.25" y2="298.64"/>
      <line class="cls-6" x1="408.48" y1="231.22" x2="286.88" y2="299.24"/>
      <line class="cls-6" x1="412.7" y1="238.44" x2="299.53" y2="299.84"/>
      <line class="cls-6" x1="236.92" y1="216.77" x2="282.67" y2="299.24"/>
      <line class="cls-6" x1="239.93" y1="214.36" x2="286.88" y2="299.24"/>
      <line class="cls-6" x1="243.54" y1="212.55" x2="291.7" y2="299.24"/>
      <line class="cls-6" x1="246.55" y1="210.75" x2="299.53" y2="299.84"/>
      <line class="cls-6" x1="252.57" y1="207.14" x2="307.35" y2="299.84"/>
      <line class="cls-6" x1="258.59" y1="203.52" x2="317.58" y2="300.44"/>
      <line class="cls-6" x1="321.8" y1="298.03" x2="262.2" y2="201.72"/>
      <line class="cls-6" x1="312.17" y1="300.44" x2="255.58" y2="205.33"/>
      <line class="cls-6" x1="325.41" y1="295.63" x2="265.82" y2="199.91"/>
      <line class="cls-6" x1="329.62" y1="293.22" x2="268.22" y2="198.11"/>
      <line class="cls-6" x1="270.63" y1="196.9" x2="332.63" y2="291.41"/>
      <line class="cls-6" x1="276.05" y1="193.89" x2="332.63" y2="291.41"/>
      <line class="cls-6" x1="279.66" y1="192.09" x2="336.25" y2="289.61"/>
      <line class="cls-6" x1="283.27" y1="189.08" x2="340.46" y2="287.2"/>
      <line class="cls-6" x1="286.28" y1="187.87" x2="344.67" y2="284.79"/>
      <line class="cls-6" x1="289.89" y1="185.47" x2="347.68" y2="282.98"/>
      <line class="cls-6" x1="294.11" y1="183.66" x2="352.5" y2="279.97"/>
      <line class="cls-6" x1="298.32" y1="181.25" x2="356.11" y2="278.17"/>
      <line class="cls-6" x1="302.54" y1="178.84" x2="362.13" y2="274.56"/>
      <line class="cls-6" x1="307.95" y1="175.23" x2="368.15" y2="270.95"/>
      <line class="cls-6" x1="313.37" y1="172.82" x2="372.97" y2="268.54"/>
      <line class="cls-6" x1="316.38" y1="170.42" x2="377.18" y2="266.13"/>
      <line class="cls-6" x1="322.4" y1="167.41" x2="381.39" y2="263.72"/>
      <line class="cls-6" x1="326.61" y1="165" x2="386.21" y2="260.71"/>
      <line class="cls-6" x1="331.43" y1="161.99" x2="391.02" y2="258.3"/>
      <line class="cls-6" x1="336.25" y1="158.98" x2="395.84" y2="255.29"/>
      <line class="cls-6" x1="342.27" y1="155.37" x2="401.26" y2="252.28"/>
      <line class="cls-6" x1="347.68" y1="152.36" x2="407.28" y2="248.67"/>
      <line class="cls-6" x1="353.7" y1="149.35" x2="411.49" y2="246.26"/>
      <line class="cls-6" x1="202.01" y1="342.58" x2="249.56" y2="402.17"/>
      <line class="cls-6" x1="209.23" y1="337.76" x2="256.79" y2="399.16"/>
      <line class="cls-6" x1="259.8" y1="397.96" x2="211.64" y2="336.56"/>
      <line class="cls-6" x1="216.45" y1="334.15" x2="263.41" y2="396.76"/>
      <line class="cls-6" x1="223.68" y1="329.94" x2="269.43" y2="394.95"/>
      <line class="cls-6" x1="230.9" y1="325.72" x2="274.85" y2="392.54"/>
      <line class="cls-6" x1="237.52" y1="322.11" x2="280.26" y2="390.74"/>
      <line class="cls-6" x1="242.94" y1="318.5" x2="283.87" y2="389.53"/>
      <line class="cls-6" x1="250.16" y1="314.89" x2="290.5" y2="391.34"/>
      <line class="cls-6" x1="254.98" y1="311.88" x2="296.52" y2="393.14"/>
      <line class="cls-6" x1="259.19" y1="309.47" x2="303.14" y2="394.95"/>
      <line class="cls-6" x1="263.41" y1="307.06" x2="315.78" y2="397.96"/>
      <line class="cls-6" x1="268.22" y1="304.05" x2="322.4" y2="399.77"/>
      <line class="cls-6" x1="271.23" y1="302.25" x2="327.22" y2="401.57"/>
      <line class="cls-6" x1="276.05" y1="299.84" x2="332.63" y2="402.78"/>
      <line class="cls-6" x1="336.85" y1="403.98" x2="282.67" y2="299.24"/>
      <line class="cls-6" x1="286.88" y1="299.24" x2="340.46" y2="401.57"/>
      <line class="cls-6" x1="344.07" y1="399.77" x2="291.7" y2="299.24"/>
      <line class="cls-6" x1="296.52" y1="299.84" x2="348.89" y2="396.76"/>
      <line class="cls-6" x1="301.93" y1="299.84" x2="353.1" y2="394.35"/>
      <line class="cls-6" x1="307.35" y1="299.84" x2="357.31" y2="391.94"/>
      <line class="cls-6" x1="312.17" y1="300.44" x2="362.13" y2="388.93"/>
      <line class="cls-6" x1="327.22" y1="313.08" x2="366.34" y2="386.52"/>
      <line class="cls-6" x1="348.89" y1="341.98" x2="370.56" y2="384.11"/>
      <line class="cls-6" x1="368.75" y1="368.46" x2="374.77" y2="381.1"/>
      <line class="cls-6" x1="200.2" y1="349.8" x2="282.67" y2="299.24"/>
      <line class="cls-6" x1="203.21" y1="354.02" x2="291.7" y2="299.24"/>
      <line class="cls-6" x1="207.43" y1="358.83" x2="299.53" y2="299.84"/>
      <line class="cls-6" x1="210.43" y1="363.05" x2="312.17" y2="300.44"/>
      <line class="cls-6" x1="215.25" y1="368.46" x2="319.39" y2="302.85"/>
      <line class="cls-6" x1="217.06" y1="370.87" x2="321.8" y2="305.26"/>
      <line class="cls-6" x1="220.07" y1="375.09" x2="325.41" y2="310.67"/>
      <line class="cls-6" x1="327.22" y1="313.08" x2="222.47" y2="378.1"/>
      <polyline class="cls-6" points="330.23 317.3 226.09 382.31 215.94 388.68"/>
      <line class="cls-6" x1="333.84" y1="321.51" x2="228.49" y2="385.32"/>
      <line class="cls-6" x1="335.64" y1="324.52" x2="230.3" y2="387.73"/>
      <line class="cls-6" x1="235.72" y1="394.35" x2="341.06" y2="331.74"/>
      <line class="cls-6" x1="348.89" y1="341.98" x2="243.54" y2="403.98"/>
      <line class="cls-6" x1="283.87" y1="389.53" x2="353.7" y2="348"/>
      <line class="cls-6" x1="290.5" y1="391.34" x2="357.31" y2="352.81"/>
      <line class="cls-6" x1="296.52" y1="393.14" x2="359.72" y2="356.42"/>
      <line class="cls-6" x1="307.95" y1="396.15" x2="366.34" y2="365.45"/>
      <line class="cls-6" x1="322.4" y1="399.77" x2="371.76" y2="372.68"/>
    </g>
    <polyline class="cls-2" points="100.75 47.74 133.74 170.38 188.87 260.89 277.38 298.9 377.38 303.48 433.17 347.09"/>
    <polyline class="cls-1" points="188.38 260.48 217.38 399.48 206.41 461.35"/>
    <polyline class="cls-1" points="171.73 231.47 173.82 144.72 196.38 71.48 206.33 6.66"/>
    <polyline class="cls-5" points="64.38 80.15 129.13 144.72 189.97 202.56 266.42 279.97 286.88 345.59 325.41 444.03"/>
    <polyline class="cls-5" points="55.97 96.37 69.27 125.54 111.38 238.48 263.29 386.22 286.88 461.35"/>
    <polyline class="cls-1" points="173.38 144.48 296.38 106.48 356.41 40.43"/>
    <polyline class="cls-1" points="377.38 303.48 377.48 231.82 296.38 106.48"/>
    <line class="cls-5" x1="87.53" y1="102.34" x2="49.88" y2="122.98"/>
    <line class="cls-5" x1="71.07" y1="128.55" x2="55.88" y2="134.98"/>
    <line class="cls-5" x1="57.02" y1="119.07" x2="63.48" y2="132.62"/>
    <line class="cls-6" x1="70.13" y1="149.35" x2="87.53" y2="176.53"/>
    <line class="cls-5" x1="266.3" y1="395.83" x2="225.88" y2="410.98"/>
    <line class="cls-6" x1="146.63" y1="272.77" x2="159.38" y2="303.48"/>
    <line class="cls-5" x1="232.38" y1="439.48" x2="336.73" y2="403.4"/>
    <circle class="cls-4" cx="234" cy="234" r="229"/>
    <circle class="cls-7" cx="159.88" cy="95.98" r="5"/>
    <circle class="cls-7" cx="351.88" cy="244.98" r="5"/>
    <circle class="cls-7" cx="229.88" cy="225.98" r="5"/>
    <circle class="cls-7" cx="144.88" cy="187.98" r="5"/>
    <circle class="cls-7" cx="225.88" cy="328.98" r="5"/>
  </g>
</svg>