<?xml version="1.0" encoding="UTF-8"?>
<svg id="uuid-0ed526ff-3ed2-4569-ac91-5ae145b49f0d" data-name="Layer 1" xmlns="http://www.w3.org/2000/svg" viewBox="0 0 1000 1000">
  <defs>
    <style>
      .uuid-97f04233-dc32-4ff2-be31-36d36cf9179c {
        fill: #00ff73;
      }
    </style>
  </defs>
  <path class="uuid-97f04233-dc32-4ff2-be31-36d36cf9179c" d="M500,415.02c99.39,0,189.51,40.43,254.78,105.7l46.97-46.97c-19.3-19.3-40.54-36.83-63.13-52.09-22.81-15.41-47.21-28.65-72.5-39.35-52.63-22.26-108.52-33.55-166.11-33.55s-113.48,11.29-166.11,33.55c-25.29,10.7-49.69,23.94-72.5,39.35-22.59,15.26-43.83,32.79-63.13,52.09l46.97,46.97c65.27-65.27,155.4-105.7,254.78-105.7Z"/>
  <path class="uuid-97f04233-dc32-4ff2-be31-36d36cf9179c" d="M500,522.89c69.65,0,132.8,28.33,178.54,74.07l46.93-46.93c-29.27-29.27-63.37-52.26-101.34-68.32-39.33-16.64-81.09-25.07-124.13-25.07s-84.79,8.44-124.13,25.07c-37.97,16.06-72.07,39.05-101.34,68.32l46.93,46.93c45.74-45.74,108.9-74.07,178.54-74.07Z"/>
  <path class="uuid-97f04233-dc32-4ff2-be31-36d36cf9179c" d="M500,630.76c39.91,0,76.09,16.23,102.3,42.44l46.89-46.89s0,0,0,0c-19.37-19.37-41.93-34.58-67.06-45.2-26.03-11.01-53.67-16.59-82.14-16.59s-56.1,5.58-82.14,16.59c-25.13,10.63-47.69,25.84-67.06,45.2h0s46.89,46.89,46.89,46.89c26.21-26.21,62.39-42.44,102.3-42.44Z"/>
  <path class="uuid-97f04233-dc32-4ff2-be31-36d36cf9179c" d="M573.07,702.43c-18.7-18.7-44.53-30.26-73.07-30.26s-54.37,11.57-73.07,30.26l73.07,73.07,73.07-73.07Z"/>
  <path class="uuid-97f04233-dc32-4ff2-be31-36d36cf9179c" d="M500,303.33c128.28,0,244.61,48.11,328.87,125.78l60.62-55.89c-24.92-22.97-52.33-43.82-81.49-61.98-29.45-18.34-60.93-34.09-93.58-46.82-67.94-26.49-140.08-39.92-214.42-39.92s-146.48,13.43-214.42,39.92c-32.65,12.73-64.13,28.48-93.58,46.82-29.16,18.16-56.57,39.01-81.49,61.98l60.62,55.89c84.25-77.67,200.58-125.78,328.87-125.78Z"/>
</svg>