<?xml version="1.0" encoding="UTF-8"?>
<svg id="Layer_2" data-name="Layer 2" xmlns="http://www.w3.org/2000/svg" viewBox="0 0 715 1564.85">
  <defs>
    <style>
      .cls-1 {
        fill: #fff;
      }
    </style>
  </defs>
  <g id="Layer_1-2" data-name="Layer 1">
    <path class="cls-1" d="M621,0l-30,18-29,73-41,83-36,59v81.85l-35,41.15v55.91s-86,117.09-114.5,170.59-55.5,93.5-61.5,117.5-18,27-18,27c0,0-23.65,18.42-29.32,44.21-5.68,25.79-20.68,58.79-20.68,58.79l-23,47-36,61v23.91s-32,41.09-47,56.09-23,38-23,38l-21,47v97.15s-24,19.85-21,134.85l-17,80v52.79L0,1518v46.85H50.21l67.79-55.85,126-21,24-14,20-80,22.5-67.38-25.5-67.62,33.12-94.15,81.88-111.85,83-118s20-24,26-44l-18-38,21-29,32.32-53.5,35.68-35.5,17-29s-23-103-35-112l-3-197,6-62,38-76,38-79v-29.85l13,7.85,28-26,15-28,18-30V26.88l-28-7.88-23,10-23-15-20-14Z"/>
  </g>
</svg>