<?xml version="1.0" encoding="UTF-8"?>
<svg id="Layer_2" data-name="Layer 2" xmlns="http://www.w3.org/2000/svg" viewBox="0 0 1000 461.88">
  <g id="Layer_1-2" data-name="Layer 1">
    <g>
      <polygon points="0 0 0 2.31 15.33 28.87 0 55.43 0 57.73 16.67 28.87 0 0"/>
      <polygon points="15.33 86.6 0 113.16 0 115.47 16.67 86.6 0 57.73 0 60.04 15.33 86.6"/>
      <polygon points="0 115.47 0 117.78 15.33 144.34 0 170.9 0 173.2 16.67 144.34 0 115.47"/>
      <polygon points="0 173.21 0 175.51 15.33 202.07 0 228.63 0 230.94 16.67 202.07 0 173.21"/>
      <polygon points="0 230.94 0 233.25 15.33 259.81 0 286.37 0 288.67 16.67 259.81 0 230.94"/>
      <polygon points="15.33 317.54 0 344.1 0 346.41 16.67 317.54 0 288.68 0 290.98 15.33 317.54"/>
      <path d="M50,375.28l16.67-28.87-16.67-28.87,16.67-28.87-16.67-28.87,16.67-28.87-16.67-28.87,16.67-28.87-16.67-28.87,16.67-28.87-16.67-28.87,16.67-28.87-16.67-28.87L66.67,0h-1.33l-16,27.71H17.33L1.33,0H0L16.67,28.87,0,57.73l16.67,28.87L0,115.47l16.67,28.87L0,173.2l16.67,28.87L0,230.94l16.67,28.87L0,288.68l16.67,28.87L0,346.41l16.67,28.87L0,404.14l16.67,28.87L0,461.88H1.33l16-27.71H49.33l16,27.71h1.33l-16.67-28.87,16.67-28.87-16.67-28.87ZM1.33,57.73l16-27.71H49.33l16,27.71-16,27.71H17.33L1.33,57.73Zm0,57.73l16-27.71H49.33l16,27.71-16,27.71H17.33L1.33,115.47Zm0,57.74l16-27.71H49.33l16,27.71-16,27.71H17.33L1.33,173.2Zm0,57.73l16-27.71H49.33l16,27.71-16,27.71H17.33L1.33,230.94Zm0,57.74l16-27.71H49.33l16,27.71-16,27.71H17.33l-16-27.71Zm0,57.73l16-27.71H49.33l16,27.71-16,27.71H17.33l-16-27.71Zm48,85.45H17.33l-16-27.71,16-27.71H49.33l16,27.71-16,27.71Z"/>
      <polygon points="0 346.41 0 348.72 15.33 375.28 0 401.84 0 404.14 16.67 375.28 0 346.41"/>
      <polygon points="0 404.15 0 406.45 15.33 433.01 0 459.57 0 461.88 16.67 433.01 0 404.15"/>
      <path d="M150,375.28l16.67-28.87-16.67-28.87,16.67-28.87-16.67-28.87,16.67-28.87-16.67-28.87,16.67-28.87-16.67-28.87,16.67-28.87-16.67-28.87,16.67-28.87-16.67-28.87L166.67,0h-1.33l-16,27.71h-32L101.33,0h-1.33l16.67,28.87-16.67,28.87,16.67,28.87-16.67,28.87,16.67,28.87-16.67,28.87,16.67,28.87-16.67,28.87,16.67,28.87-16.67,28.87,16.67,28.87-16.67,28.87,16.67,28.87-16.67,28.87,16.67,28.87-16.67,28.87h1.33l16-27.71h32l16,27.71h1.33l-16.67-28.87,16.67-28.87-16.67-28.87ZM101.33,57.73l16-27.71h32l16,27.71-16,27.71h-32l-16-27.71Zm0,57.73l16-27.71h32l16,27.71-16,27.71h-32l-16-27.71Zm0,57.74l16-27.71h32l16,27.71-16,27.71h-32l-16-27.71Zm0,57.73l16-27.71h32l16,27.71-16,27.71h-32l-16-27.71Zm0,57.74l16-27.71h32l16,27.71-16,27.71h-32l-16-27.71Zm0,57.73l16-27.71h32l16,27.71-16,27.71h-32l-16-27.71Zm48,85.45h-32l-16-27.71,16-27.71h32l16,27.71-16,27.71Z"/>
      <path d="M116.67,433.01l-16.67-28.87h0s16.67-28.87,16.67-28.87l-16.67-28.87h0s16.67-28.87,16.67-28.87l-16.67-28.87h0s16.67-28.87,16.67-28.87l-16.67-28.87h0s16.67-28.87,16.67-28.87l-16.67-28.87h0s16.67-28.87,16.67-28.87l-16.67-28.87h0s16.67-28.87,16.67-28.87l-16.67-28.87h0s16.67-28.87,16.67-28.87L100,0h0s-33.33,0-33.33,0l-16.67,28.87,16.67,28.87-16.67,28.87,16.67,28.87-16.67,28.87,16.67,28.87-16.67,28.87,16.67,28.87-16.67,28.87,16.67,28.87-16.67,28.87,16.67,28.87-16.67,28.87,16.67,28.87-16.67,28.87,16.67,28.87h33.33s16.67-28.87,16.67-28.87ZM51.33,28.87L67.33,1.15h32l.67,1.15h0s15.33,26.56,15.33,26.56l-15.33,26.56-.67,1.15h-32l-16-27.71Zm0,57.73l16-27.71h32l.67,1.15,15.33,26.56-15.33,26.56-.67,1.15h-32l-16-27.71Zm0,57.73l16-27.71h32l.67,1.15,15.33,26.56-15.33,26.56h0s-.67,1.15-.67,1.15h-32l-16-27.71Zm0,57.73l16-27.71h32l.67,1.15,15.33,26.56-15.33,26.56h0s-.67,1.15-.67,1.15h-32l-16-27.71Zm0,57.74l16-27.71h32l.67,1.15,15.33,26.56-15.33,26.56-.67,1.15h-32l-16-27.71Zm0,57.74l16-27.71h32l.67,1.15,15.33,26.56-15.33,26.56-.67,1.15h-32l-16-27.71Zm0,57.73l16-27.71h32l.67,1.15,15.33,26.56-15.33,26.56-.67,1.15h-32l-16-27.71Zm48,85.45h-32l-16-27.71,16-27.71h32l.67,1.15,15.33,26.56-15.33,26.56-.67,1.15Z"/>
      <path d="M216.67,433.01l-16.67-28.87h0s16.67-28.87,16.67-28.87l-16.67-28.87h0s16.67-28.87,16.67-28.87l-16.67-28.87h0s16.67-28.87,16.67-28.87l-16.67-28.87h0s16.67-28.87,16.67-28.87l-16.67-28.87h0s16.67-28.87,16.67-28.87l-16.67-28.87h0s16.67-28.87,16.67-28.87l-16.67-28.87h0s16.67-28.87,16.67-28.87L200,0h0s-33.33,0-33.33,0l-16.67,28.87,16.67,28.87-16.67,28.87,16.67,28.87-16.67,28.87,16.67,28.87-16.67,28.87,16.67,28.87-16.67,28.87,16.67,28.87-16.67,28.87,16.67,28.87-16.67,28.87,16.67,28.87-16.67,28.87,16.67,28.87h33.33s16.67-28.87,16.67-28.87ZM151.33,28.87L167.33,1.15h32l.67,1.15h0s15.33,26.56,15.33,26.56l-15.33,26.56-.67,1.15h-32l-16-27.71Zm0,57.73l16-27.71h32l.67,1.15,15.33,26.56-15.33,26.56-.67,1.15h-32l-16-27.71Zm0,57.73l16-27.71h32l.67,1.15,15.33,26.56-15.33,26.56h0s-.67,1.15-.67,1.15h-32l-16-27.71Zm0,57.73l16-27.71h32l.67,1.15,15.33,26.56-15.33,26.56h0s-.67,1.15-.67,1.15h-32l-16-27.71Zm0,57.74l16-27.71h32l.67,1.15,15.33,26.56-15.33,26.56-.67,1.15h-32l-16-27.71Zm0,57.74l16-27.71h32l.67,1.15,15.33,26.56-15.33,26.56-.67,1.15h-32l-16-27.71Zm0,57.73l16-27.71h32l.67,1.15,15.33,26.56-15.33,26.56-.67,1.15h-32l-16-27.71Zm48,85.45h-32l-16-27.71,16-27.71h32l.67,1.15,15.33,26.56-15.33,26.56-.67,1.15Z"/>
      <path d="M316.67,433.01l-16.67-28.87h0s16.67-28.87,16.67-28.87l-16.67-28.87h0s16.67-28.87,16.67-28.87l-16.67-28.87h0s16.67-28.87,16.67-28.87l-16.67-28.87h0s16.67-28.87,16.67-28.87l-16.67-28.87h0s16.67-28.87,16.67-28.87l-16.67-28.87h0s16.67-28.87,16.67-28.87l-16.67-28.87h0s16.67-28.87,16.67-28.87L300,0h0s-33.33,0-33.33,0h-1.33l-16,27.71h-32L201.33,0h-1.33l16.67,28.87-16.67,28.87,16.67,28.87-16.67,28.87,16.67,28.87-16.67,28.87,16.67,28.87-16.67,28.87,16.67,28.87-16.67,28.87,16.67,28.87-16.67,28.87,16.67,28.87-16.67,28.87,16.67,28.87-16.67,28.87h1.33l16-27.71h32l16,27.71h34.67s16.67-28.87,16.67-28.87Zm-1.33-57.74l-15.33,26.56-.67,1.15h-32l-16-27.71,16-27.71h32l.67,1.15,15.33,26.56Zm0-57.73l-15.33,26.56-.67,1.15h-32l-16-27.71,16-27.71h32l.67,1.15,15.33,26.56Zm0-57.74l-15.33,26.56-.67,1.15h-32l-16-27.71,16-27.71h32l.67,1.15,15.33,26.56Zm0-57.74l-15.33,26.56h0s-.67,1.15-.67,1.15h-32l-16-27.71,16-27.71h32l.67,1.15,15.33,26.56Zm0-57.73l-15.33,26.56h0s-.67,1.15-.67,1.15h-32l-16-27.71,16-27.71h32l.67,1.15,15.33,26.56Zm0-57.73l-15.33,26.56-.67,1.15h-32l-16-27.71,16-27.71h32l.67,1.15,15.33,26.56ZM267.33,1.15h32l.67,1.15h0s15.33,26.56,15.33,26.56l-15.33,26.56-.67,1.15h-32l-16-27.71,16-27.71Zm-66,56.58l16-27.71h32l16,27.71-16,27.71h-32l-16-27.71Zm0,57.73l16-27.71h32l16,27.71-16,27.71h-32l-16-27.71Zm0,57.74l16-27.71h32l16,27.71-16,27.71h-32l-16-27.71Zm0,57.73l16-27.71h32l16,27.71-16,27.71h-32l-16-27.71Zm0,57.74l16-27.71h32l16,27.71-16,27.71h-32l-16-27.71Zm0,57.73l16-27.71h32l16,27.71-16,27.71h-32l-16-27.71Zm16,85.45l-16-27.71,16-27.71h32l16,27.71-16,27.71h-32Zm82,28.87h-32l-16-27.71,16-27.71h32l.67,1.15,15.33,26.56-15.33,26.56-.67,1.15Z"/>
      <path d="M416.67,433.01l-16.67-28.87h0s16.67-28.87,16.67-28.87l-16.67-28.87h0s16.67-28.87,16.67-28.87l-16.67-28.87h0s16.67-28.87,16.67-28.87l-16.67-28.87h0s16.67-28.87,16.67-28.87l-16.67-28.87h0s16.67-28.87,16.67-28.87l-16.67-28.87h0s16.67-28.87,16.67-28.87l-16.67-28.87h0s16.67-28.87,16.67-28.87L400,0h0s-33.33,0-33.33,0h-1.33l-16,27.71h-32L301.33,0h-1.33l16.67,28.87-16.67,28.87,16.67,28.87-16.67,28.87,16.67,28.87-16.67,28.87,16.67,28.87-16.67,28.87,16.67,28.87-16.67,28.87,16.67,28.87-16.67,28.87,16.67,28.87-16.67,28.87,16.67,28.87-16.67,28.87h1.33l16-27.71h32l16,27.71h34.67s16.67-28.87,16.67-28.87Zm-1.33-57.74l-15.33,26.56-.67,1.15h-32l-16-27.71,16-27.71h32l.67,1.15,15.33,26.56Zm0-57.73l-15.33,26.56-.67,1.15h-32l-16-27.71,16-27.71h32l.67,1.15,15.33,26.56Zm0-57.74l-15.33,26.56-.67,1.15h-32l-16-27.71,16-27.71h32l.67,1.15,15.33,26.56Zm0-57.74l-15.33,26.56h0s-.67,1.15-.67,1.15h-32l-16-27.71,16-27.71h32l.67,1.15,15.33,26.56Zm0-57.73l-15.33,26.56h0s-.67,1.15-.67,1.15h-32l-16-27.71,16-27.71h32l.67,1.15,15.33,26.56Zm0-57.73l-15.33,26.56-.67,1.15h-32l-16-27.71,16-27.71h32l.67,1.15,15.33,26.56ZM367.33,1.15h32l.67,1.15h0s15.33,26.56,15.33,26.56l-15.33,26.56-.67,1.15h-32l-16-27.71,16-27.71Zm-66,56.58l16-27.71h32l16,27.71-16,27.71h-32l-16-27.71Zm0,57.73l16-27.71h32l16,27.71-16,27.71h-32l-16-27.71Zm0,57.74l16-27.71h32l16,27.71-16,27.71h-32l-16-27.71Zm0,57.73l16-27.71h32l16,27.71-16,27.71h-32l-16-27.71Zm0,57.74l16-27.71h32l16,27.71-16,27.71h-32l-16-27.71Zm0,57.73l16-27.71h32l16,27.71-16,27.71h-32l-16-27.71Zm16,85.45l-16-27.71,16-27.71h32l16,27.71-16,27.71h-32Zm82,28.87h-32l-16-27.71,16-27.71h32l.67,1.15,15.33,26.56-15.33,26.56-.67,1.15Z"/>
      <path d="M966.67,0h-1.33l-16,27.71h-32l-16-27.71h-1.33l16.67,28.87-16.67,28.87,16.67,28.87-16.67,28.87,16.67,28.87-16.67,28.87,16.67,28.87-16.67,28.87,16.67,28.87-16.67,28.87,16.67,28.87-16.67,28.87,16.67,28.87-16.67,28.87,16.67,28.87-16.67,28.87h1.33l16-27.71h32l16,27.71h34.67v-2.31l-.67,1.15h-32l-16-27.71,16-27.71h32l.67,1.15v-4.62l-.67,1.15h-32l-16-27.71,16-27.71h32l.67,1.15v-2.31h0v-2.31l-.67,1.15h-32l-16-27.71,16-27.71h32l.67,1.15v-2.31h0v-2.31l-.67,1.15h-32l-16-27.71,16-27.71h32l.67,1.15v-2.31h0v-2.31l-.67,1.15h-32l-16-27.71,16-27.71h32l.67,1.15v-2.31h0v-2.31l-.67,1.15h-32l-16-27.71,16-27.71h32l.67,1.15v-2.31h0v-2.31l-.67,1.15h-32l-16-27.71,16-27.71h32l.67,1.15v-2.31h0v-2.31l-.67,1.15h-32l-16-27.71,16-27.71h32l.67,1.15V0h0s-33.33,0-33.33,0Zm-1.33,404.14l-16,27.71h-32l-16-27.71,16-27.71h32l16,27.71Zm0-57.74l-16,27.71h-32l-16-27.71,16-27.71h32l16,27.71Zm0-57.73l-16,27.71h-32l-16-27.71,16-27.71h32l16,27.71Zm0-57.74l-16,27.71h-32l-16-27.71,16-27.71h32l16,27.71Zm0-57.73l-16,27.71h-32l-16-27.71,16-27.71h32l16,27.71Zm0-57.74l-16,27.71h-32l-16-27.71,16-27.71h32l16,27.71Zm0-57.73l-16,27.71h-32l-16-27.71,16-27.71h32l16,27.71Z"/>
      <path d="M550,375.28l16.67-28.87-16.67-28.87,16.67-28.87-16.67-28.87,16.67-28.87-16.67-28.87,16.67-28.87-16.67-28.87,16.67-28.87-16.67-28.87,16.67-28.87-16.67-28.87L566.67,0h-1.33l-16,27.71h-32L501.33,0h-1.33l16.67,28.87-16.67,28.87,16.67,28.87-16.67,28.87,16.67,28.87-16.67,28.87,16.67,28.87-16.67,28.87,16.67,28.87-16.67,28.87,16.67,28.87-16.67,28.87,16.67,28.87-16.67,28.87,16.67,28.87-16.67,28.87h1.33l16-27.71h32l16,27.71h1.33l-16.67-28.87,16.67-28.87-16.67-28.87ZM501.33,57.73l16-27.71h32l16,27.71-16,27.71h-32l-16-27.71Zm0,57.73l16-27.71h32l16,27.71-16,27.71h-32l-16-27.71Zm0,57.74l16-27.71h32l16,27.71-16,27.71h-32l-16-27.71Zm0,57.73l16-27.71h32l16,27.71-16,27.71h-32l-16-27.71Zm0,57.74l16-27.71h32l16,27.71-16,27.71h-32l-16-27.71Zm0,57.73l16-27.71h32l16,27.71-16,27.71h-32l-16-27.71Zm48,85.45h-32l-16-27.71,16-27.71h32l16,27.71-16,27.71Z"/>
      <path d="M516.67,433.01l-16.67-28.87h0s16.67-28.87,16.67-28.87l-16.67-28.87h0s16.67-28.87,16.67-28.87l-16.67-28.87h0s16.67-28.87,16.67-28.87l-16.67-28.87h0s16.67-28.87,16.67-28.87l-16.67-28.87h0s16.67-28.87,16.67-28.87l-16.67-28.87h0s16.67-28.87,16.67-28.87l-16.67-28.87h0s16.67-28.87,16.67-28.87L500,0h0s-33.33,0-33.33,0h-1.33l-16,27.71h-32L401.33,0h-1.33l16.67,28.87-16.67,28.87,16.67,28.87-16.67,28.87,16.67,28.87-16.67,28.87,16.67,28.87-16.67,28.87,16.67,28.87-16.67,28.87,16.67,28.87-16.67,28.87,16.67,28.87-16.67,28.87,16.67,28.87-16.67,28.87h1.33l16-27.71h32l16,27.71h34.67s16.67-28.87,16.67-28.87Zm-1.33-57.74l-15.33,26.56-.67,1.15h-32l-16-27.71,16-27.71h32l.67,1.15,15.33,26.56Zm0-57.73l-15.33,26.56-.67,1.15h-32l-16-27.71,16-27.71h32l.67,1.15,15.33,26.56Zm0-57.74l-15.33,26.56-.67,1.15h-32l-16-27.71,16-27.71h32l.67,1.15,15.33,26.56Zm0-57.74l-15.33,26.56h0s-.67,1.15-.67,1.15h-32l-16-27.71,16-27.71h32l.67,1.15,15.33,26.56Zm0-57.73l-15.33,26.56h0s-.67,1.15-.67,1.15h-32l-16-27.71,16-27.71h32l.67,1.15,15.33,26.56Zm0-57.73l-15.33,26.56-.67,1.15h-32l-16-27.71,16-27.71h32l.67,1.15,15.33,26.56ZM467.33,1.15h32l.67,1.15h0s15.33,26.56,15.33,26.56l-15.33,26.56-.67,1.15h-32l-16-27.71,16-27.71Zm-66,56.58l16-27.71h32l16,27.71-16,27.71h-32l-16-27.71Zm0,57.73l16-27.71h32l16,27.71-16,27.71h-32l-16-27.71Zm0,57.74l16-27.71h32l16,27.71-16,27.71h-32l-16-27.71Zm0,57.73l16-27.71h32l16,27.71-16,27.71h-32l-16-27.71Zm0,57.74l16-27.71h32l16,27.71-16,27.71h-32l-16-27.71Zm0,57.73l16-27.71h32l16,27.71-16,27.71h-32l-16-27.71Zm16,85.45l-16-27.71,16-27.71h32l16,27.71-16,27.71h-32Zm82,28.87h-32l-16-27.71,16-27.71h32l.67,1.15,15.33,26.56-15.33,26.56-.67,1.15Z"/>
      <path d="M650,375.28l16.67-28.87-16.67-28.87,16.67-28.87-16.67-28.87,16.67-28.87-16.67-28.87,16.67-28.87-16.67-28.87,16.67-28.87-16.67-28.87,16.67-28.87-16.67-28.87L666.67,0h-1.33l-16,27.71h-32l-16-27.71h-1.33l16.67,28.87-16.67,28.87,16.67,28.87-16.67,28.87,16.67,28.87-16.67,28.87,16.67,28.87-16.67,28.87,16.67,28.87-16.67,28.87,16.67,28.87-16.67,28.87,16.67,28.87-16.67,28.87,16.67,28.87-16.67,28.87h1.33l16-27.71h32l16,27.71h1.33l-16.67-28.87,16.67-28.87-16.67-28.87Zm-48.67-317.54l16-27.71h32l16,27.71-16,27.71h-32l-16-27.71Zm0,57.73l16-27.71h32l16,27.71-16,27.71h-32l-16-27.71Zm0,57.74l16-27.71h32l16,27.71-16,27.71h-32l-16-27.71Zm0,57.73l16-27.71h32l16,27.71-16,27.71h-32l-16-27.71Zm0,57.74l16-27.71h32l16,27.71-16,27.71h-32l-16-27.71Zm0,57.73l16-27.71h32l16,27.71-16,27.71h-32l-16-27.71Zm48,85.45h-32l-16-27.71,16-27.71h32l16,27.71-16,27.71Z"/>
      <path d="M616.67,433.01l-16.67-28.87h0s16.67-28.87,16.67-28.87l-16.67-28.87h0s16.67-28.87,16.67-28.87l-16.67-28.87h0s16.67-28.87,16.67-28.87l-16.67-28.87h0s16.67-28.87,16.67-28.87l-16.67-28.87h0s16.67-28.87,16.67-28.87l-16.67-28.87h0s16.67-28.87,16.67-28.87l-16.67-28.87h0s16.67-28.87,16.67-28.87L600,0h0s-33.33,0-33.33,0l-16.67,28.87,16.67,28.87-16.67,28.87,16.67,28.87-16.67,28.87,16.67,28.87-16.67,28.87,16.67,28.87-16.67,28.87,16.67,28.87-16.67,28.87,16.67,28.87-16.67,28.87,16.67,28.87-16.67,28.87,16.67,28.87h33.33s16.67-28.87,16.67-28.87ZM551.33,28.87l16-27.71h32l.67,1.15h0s15.33,26.56,15.33,26.56l-15.33,26.56-.67,1.15h-32l-16-27.71Zm0,57.73l16-27.71h32l.67,1.15,15.33,26.56-15.33,26.56-.67,1.15h-32l-16-27.71Zm0,57.73l16-27.71h32l.67,1.15,15.33,26.56-15.33,26.56h0s-.67,1.15-.67,1.15h-32l-16-27.71Zm0,57.73l16-27.71h32l.67,1.15,15.33,26.56-15.33,26.56h0s-.67,1.15-.67,1.15h-32l-16-27.71Zm0,57.74l16-27.71h32l.67,1.15,15.33,26.56-15.33,26.56-.67,1.15h-32l-16-27.71Zm0,57.74l16-27.71h32l.67,1.15,15.33,26.56-15.33,26.56-.67,1.15h-32l-16-27.71Zm0,57.73l16-27.71h32l.67,1.15,15.33,26.56-15.33,26.56-.67,1.15h-32l-16-27.71Zm48,85.45h-32l-16-27.71,16-27.71h32l.67,1.15,15.33,26.56-15.33,26.56-.67,1.15Z"/>
      <path d="M716.67,433.01l-16.67-28.87h0s16.67-28.87,16.67-28.87l-16.67-28.87h0s16.67-28.87,16.67-28.87l-16.67-28.87h0s16.67-28.87,16.67-28.87l-16.67-28.87h0s16.67-28.87,16.67-28.87l-16.67-28.87h0s16.67-28.87,16.67-28.87l-16.67-28.87h0s16.67-28.87,16.67-28.87l-16.67-28.87h0s16.67-28.87,16.67-28.87L700,0h0s-33.33,0-33.33,0l-16.67,28.87,16.67,28.87-16.67,28.87,16.67,28.87-16.67,28.87,16.67,28.87-16.67,28.87,16.67,28.87-16.67,28.87,16.67,28.87-16.67,28.87,16.67,28.87-16.67,28.87,16.67,28.87-16.67,28.87,16.67,28.87h33.33s16.67-28.87,16.67-28.87ZM651.33,28.87l16-27.71h32l.67,1.15h0s15.33,26.56,15.33,26.56l-15.33,26.56-.67,1.15h-32l-16-27.71Zm0,57.73l16-27.71h32l.67,1.15,15.33,26.56-15.33,26.56-.67,1.15h-32l-16-27.71Zm0,57.73l16-27.71h32l.67,1.15,15.33,26.56-15.33,26.56h0s-.67,1.15-.67,1.15h-32l-16-27.71Zm0,57.73l16-27.71h32l.67,1.15,15.33,26.56-15.33,26.56h0s-.67,1.15-.67,1.15h-32l-16-27.71Zm0,57.74l16-27.71h32l.67,1.15,15.33,26.56-15.33,26.56-.67,1.15h-32l-16-27.71Zm0,57.74l16-27.71h32l.67,1.15,15.33,26.56-15.33,26.56-.67,1.15h-32l-16-27.71Zm0,57.73l16-27.71h32l.67,1.15,15.33,26.56-15.33,26.56-.67,1.15h-32l-16-27.71Zm48,85.45h-32l-16-27.71,16-27.71h32l.67,1.15,15.33,26.56-15.33,26.56-.67,1.15Z"/>
      <path d="M816.67,433.01l-16.67-28.87h0s16.67-28.87,16.67-28.87l-16.67-28.87h0s16.67-28.87,16.67-28.87l-16.67-28.87h0s16.67-28.87,16.67-28.87l-16.67-28.87h0s16.67-28.87,16.67-28.87l-16.67-28.87h0s16.67-28.87,16.67-28.87l-16.67-28.87h0s16.67-28.87,16.67-28.87l-16.67-28.87h0s16.67-28.87,16.67-28.87L800,0h0s-33.33,0-33.33,0h-1.33l-16,27.71h-32l-16-27.71h-1.33l16.67,28.87-16.67,28.87,16.67,28.87-16.67,28.87,16.67,28.87-16.67,28.87,16.67,28.87-16.67,28.87,16.67,28.87-16.67,28.87,16.67,28.87-16.67,28.87,16.67,28.87-16.67,28.87,16.67,28.87-16.67,28.87h1.33l16-27.71h32l16,27.71h34.67s16.67-28.87,16.67-28.87Zm-1.33-57.74l-15.33,26.56-.67,1.15h-32l-16-27.71,16-27.71h32l.67,1.15,15.33,26.56Zm0-57.73l-15.33,26.56-.67,1.15h-32l-16-27.71,16-27.71h32l.67,1.15,15.33,26.56Zm0-57.74l-15.33,26.56-.67,1.15h-32l-16-27.71,16-27.71h32l.67,1.15,15.33,26.56Zm0-57.74l-15.33,26.56h0s-.67,1.15-.67,1.15h-32l-16-27.71,16-27.71h32l.67,1.15,15.33,26.56Zm0-57.73l-15.33,26.56h0s-.67,1.15-.67,1.15h-32l-16-27.71,16-27.71h32l.67,1.15,15.33,26.56Zm0-57.73l-15.33,26.56-.67,1.15h-32l-16-27.71,16-27.71h32l.67,1.15,15.33,26.56ZM767.33,1.15h32l.67,1.15h0s15.33,26.56,15.33,26.56l-15.33,26.56-.67,1.15h-32l-16-27.71,16-27.71Zm-66,56.58l16-27.71h32l16,27.71-16,27.71h-32l-16-27.71Zm0,57.73l16-27.71h32l16,27.71-16,27.71h-32l-16-27.71Zm0,57.74l16-27.71h32l16,27.71-16,27.71h-32l-16-27.71Zm0,57.73l16-27.71h32l16,27.71-16,27.71h-32l-16-27.71Zm0,57.74l16-27.71h32l16,27.71-16,27.71h-32l-16-27.71Zm0,57.73l16-27.71h32l16,27.71-16,27.71h-32l-16-27.71Zm16,85.45l-16-27.71,16-27.71h32l16,27.71-16,27.71h-32Zm82,28.87h-32l-16-27.71,16-27.71h32l.67,1.15,15.33,26.56-15.33,26.56-.67,1.15Z"/>
      <path d="M916.67,433.01l-16.67-28.87h0s16.67-28.87,16.67-28.87l-16.67-28.87h0s16.67-28.87,16.67-28.87l-16.67-28.87h0s16.67-28.87,16.67-28.87l-16.67-28.87h0s16.67-28.87,16.67-28.87l-16.67-28.87h0s16.67-28.87,16.67-28.87l-16.67-28.87h0s16.67-28.87,16.67-28.87l-16.67-28.87h0s16.67-28.87,16.67-28.87L900,0h0s-33.33,0-33.33,0h-1.33l-16,27.71h-32l-16-27.71h-1.33l16.67,28.87-16.67,28.87,16.67,28.87-16.67,28.87,16.67,28.87-16.67,28.87,16.67,28.87-16.67,28.87,16.67,28.87-16.67,28.87,16.67,28.87-16.67,28.87,16.67,28.87-16.67,28.87,16.67,28.87-16.67,28.87h1.33l16-27.71h32l16,27.71h34.67s16.67-28.87,16.67-28.87Zm-1.33-57.74l-15.33,26.56-.67,1.15h-32l-16-27.71,16-27.71h32l.67,1.15,15.33,26.56Zm0-57.73l-15.33,26.56-.67,1.15h-32l-16-27.71,16-27.71h32l.67,1.15,15.33,26.56Zm0-57.74l-15.33,26.56-.67,1.15h-32l-16-27.71,16-27.71h32l.67,1.15,15.33,26.56Zm0-57.74l-15.33,26.56h0s-.67,1.15-.67,1.15h-32l-16-27.71,16-27.71h32l.67,1.15,15.33,26.56Zm0-57.73l-15.33,26.56h0s-.67,1.15-.67,1.15h-32l-16-27.71,16-27.71h32l.67,1.15,15.33,26.56Zm0-57.73l-15.33,26.56-.67,1.15h-32l-16-27.71,16-27.71h32l.67,1.15,15.33,26.56ZM867.33,1.15h32l.67,1.15h0s15.33,26.56,15.33,26.56l-15.33,26.56-.67,1.15h-32l-16-27.71,16-27.71Zm-66,56.58l16-27.71h32l16,27.71-16,27.71h-32l-16-27.71Zm0,57.73l16-27.71h32l16,27.71-16,27.71h-32l-16-27.71Zm0,57.74l16-27.71h32l16,27.71-16,27.71h-32l-16-27.71Zm0,57.73l16-27.71h32l16,27.71-16,27.71h-32l-16-27.71Zm0,57.74l16-27.71h32l16,27.71-16,27.71h-32l-16-27.71Zm0,57.73l16-27.71h32l16,27.71-16,27.71h-32l-16-27.71Zm16,85.45l-16-27.71,16-27.71h32l16,27.71-16,27.71h-32Zm82,28.87h-32l-16-27.71,16-27.71h32l.67,1.15,15.33,26.56-15.33,26.56-.67,1.15Z"/>
    </g>
  </g>
</svg>